<mxfile host="app.diagrams.net" agent="Mozilla/5.0 (Macintosh; Intel Mac OS X 10_15_7) AppleWebKit/537.36 (KHTML, like Gecko) Chrome/131.0.0.0 Safari/537.36" version="25.0.3">
  <diagram name="第 1 页" id="uPqIWpGkR5zD-Zd0TDs1">
    <mxGraphModel dx="954" dy="401" grid="1" gridSize="10" guides="1" tooltips="1" connect="1" arrows="1" fold="1" page="1" pageScale="1" pageWidth="827" pageHeight="1169" math="0" shadow="0">
      <root>
        <mxCell id="0" />
        <mxCell id="1" parent="0" />
        <mxCell id="mvTNQdhl9h-LqwvqkmRP-12" value="" style="rounded=1;whiteSpace=wrap;html=1;" vertex="1" parent="1">
          <mxGeometry x="30" y="10" width="820" height="610" as="geometry" />
        </mxCell>
        <mxCell id="mvTNQdhl9h-LqwvqkmRP-1" value="&lt;div style=&quot;color: rgb(212, 212, 212); background-color: rgb(30, 30, 30); font-family: Menlo, Monaco, &amp;quot;Courier New&amp;quot;, monospace; line-height: 18px; white-space-collapse: preserve;&quot;&gt;&lt;span style=&quot;color: #569cd6;&quot;&gt;public&lt;/span&gt; &lt;span style=&quot;color: #569cd6;&quot;&gt;static&lt;/span&gt; &lt;span style=&quot;color: #4ec9b0;&quot;&gt;GuidanceSkv&lt;/span&gt; &lt;span style=&quot;color: #dcdcaa;&quot;&gt;create&lt;/span&gt;(&lt;span style=&quot;color: #4ec9b0;&quot;&gt;String&lt;/span&gt; &lt;span style=&quot;color: #9cdcfe;&quot;&gt;resourceOwner&lt;/span&gt;, &lt;span style=&quot;color: #4ec9b0;&quot;&gt;String&lt;/span&gt; &lt;span style=&quot;color: #9cdcfe;&quot;&gt;resourceName&lt;/span&gt;)&lt;/div&gt;" style="text;html=1;align=center;verticalAlign=middle;resizable=0;points=[];autosize=1;strokeColor=none;fillColor=none;" vertex="1" parent="1">
          <mxGeometry x="60" y="60" width="570" height="30" as="geometry" />
        </mxCell>
        <mxCell id="mvTNQdhl9h-LqwvqkmRP-2" value="&lt;div style=&quot;color: rgb(212, 212, 212); background-color: rgb(30, 30, 30); font-family: Menlo, Monaco, &amp;quot;Courier New&amp;quot;, monospace; line-height: 18px; white-space-collapse: preserve;&quot;&gt;&lt;span style=&quot;color: #569cd6;&quot;&gt;public&lt;/span&gt; &lt;span style=&quot;color: #569cd6;&quot;&gt;static&lt;/span&gt; &lt;span style=&quot;color: #4ec9b0;&quot;&gt;GuidanceSkvConfig&lt;/span&gt; &lt;span style=&quot;color: #dcdcaa;&quot;&gt;create&lt;/span&gt;(&lt;span style=&quot;color: #4ec9b0;&quot;&gt;String&lt;/span&gt; &lt;span style=&quot;color: #9cdcfe;&quot;&gt;resourceOwner&lt;/span&gt;, &lt;span style=&quot;color: #4ec9b0;&quot;&gt;String&lt;/span&gt; &lt;span style=&quot;color: #9cdcfe;&quot;&gt;resourceName&lt;/span&gt;)&lt;/div&gt;" style="text;html=1;align=center;verticalAlign=middle;resizable=0;points=[];autosize=1;strokeColor=none;fillColor=none;" vertex="1" parent="1">
          <mxGeometry x="80" y="80" width="610" height="30" as="geometry" />
        </mxCell>
        <mxCell id="mvTNQdhl9h-LqwvqkmRP-3" value="&lt;div style=&quot;color: rgb(212, 212, 212); background-color: rgb(30, 30, 30); font-family: Menlo, Monaco, &amp;quot;Courier New&amp;quot;, monospace; line-height: 18px; white-space-collapse: preserve;&quot;&gt;&lt;div&gt;&lt;span style=&quot;color: #569cd6;&quot;&gt;static&lt;/span&gt; &lt;span style=&quot;color: #4ec9b0;&quot;&gt;GuidanceSkvConfig&lt;/span&gt; &lt;span style=&quot;color: #dcdcaa;&quot;&gt;create&lt;/span&gt;(&lt;/div&gt;&lt;div&gt;      &lt;span style=&quot;color: #4ec9b0;&quot;&gt;String&lt;/span&gt; &lt;span style=&quot;color: #9cdcfe;&quot;&gt;resourceOwner&lt;/span&gt;, &lt;span style=&quot;color: #4ec9b0;&quot;&gt;String&lt;/span&gt; &lt;span style=&quot;color: #9cdcfe;&quot;&gt;resourceName&lt;/span&gt;, &lt;span style=&quot;color: #4ec9b0;&quot;&gt;Guidance&lt;/span&gt; &lt;span style=&quot;color: #9cdcfe;&quot;&gt;guidance&lt;/span&gt;, &lt;span style=&quot;color: #4ec9b0;&quot;&gt;HyperionConfigManager&lt;/span&gt; &lt;span style=&quot;color: #9cdcfe;&quot;&gt;etcd&lt;/span&gt;)&lt;/div&gt;&lt;/div&gt;" style="text;html=1;align=left;verticalAlign=middle;resizable=0;points=[];autosize=1;strokeColor=none;fillColor=none;" vertex="1" parent="1">
          <mxGeometry x="107" y="100" width="710" height="50" as="geometry" />
        </mxCell>
        <mxCell id="mvTNQdhl9h-LqwvqkmRP-4" value="&lt;div style=&quot;color: rgb(212, 212, 212); background-color: rgb(30, 30, 30); font-family: Menlo, Monaco, &amp;quot;Courier New&amp;quot;, monospace; line-height: 18px; white-space-collapse: preserve;&quot;&gt;&lt;div&gt;&lt;span style=&quot;color: #569cd6;&quot;&gt;static&lt;/span&gt; &lt;span style=&quot;color: #4ec9b0;&quot;&gt;GuidanceSkvConfigSerialExt&lt;/span&gt; &lt;span style=&quot;color: #dcdcaa;&quot;&gt;guidanceSkvConfig&lt;/span&gt;(&lt;/div&gt;&lt;div&gt;      &lt;span style=&quot;color: #4ec9b0;&quot;&gt;String&lt;/span&gt; &lt;span style=&quot;color: #9cdcfe;&quot;&gt;resourceOwner&lt;/span&gt;, &lt;span style=&quot;color: #4ec9b0;&quot;&gt;String&lt;/span&gt; &lt;span style=&quot;color: #9cdcfe;&quot;&gt;resourceName&lt;/span&gt;, &lt;span style=&quot;color: #4ec9b0;&quot;&gt;Guidance&lt;/span&gt; &lt;span style=&quot;color: #9cdcfe;&quot;&gt;guidance&lt;/span&gt;)&lt;/div&gt;&lt;/div&gt;" style="text;html=1;align=left;verticalAlign=middle;resizable=0;points=[];autosize=1;strokeColor=none;fillColor=none;" vertex="1" parent="1">
          <mxGeometry x="120" y="138" width="510" height="50" as="geometry" />
        </mxCell>
        <mxCell id="mvTNQdhl9h-LqwvqkmRP-5" value="&lt;div style=&quot;color: rgb(212, 212, 212); background-color: rgb(30, 30, 30); font-family: Menlo, Monaco, &amp;quot;Courier New&amp;quot;, monospace; line-height: 18px; white-space-collapse: preserve;&quot;&gt;&lt;div&gt;&lt;span style=&quot;color: #569cd6;&quot;&gt;public&lt;/span&gt; &lt;span style=&quot;color: #4ec9b0;&quot;&gt;KvTableClientBuilder&lt;/span&gt;&amp;lt;&lt;span style=&quot;color: #4ec9b0;&quot;&gt;KvTableClientInterface&lt;/span&gt;&amp;gt; &lt;span style=&quot;color: #dcdcaa;&quot;&gt;getClientBuilder&lt;/span&gt;(&lt;/div&gt;&lt;div&gt;      &lt;span style=&quot;color: #4ec9b0;&quot;&gt;String&lt;/span&gt; &lt;span style=&quot;color: #9cdcfe;&quot;&gt;legacyProduct&lt;/span&gt;, &lt;span style=&quot;color: #4ec9b0;&quot;&gt;String&lt;/span&gt; &lt;span style=&quot;color: #9cdcfe;&quot;&gt;legacyBusiness&lt;/span&gt;, &lt;span style=&quot;color: #4ec9b0;&quot;&gt;String&lt;/span&gt; &lt;span style=&quot;color: #9cdcfe;&quot;&gt;legacyModule&lt;/span&gt;)&lt;/div&gt;&lt;/div&gt;" style="text;html=1;align=left;verticalAlign=middle;resizable=0;points=[];autosize=1;strokeColor=none;fillColor=none;" vertex="1" parent="1">
          <mxGeometry x="140" y="178" width="540" height="50" as="geometry" />
        </mxCell>
        <mxCell id="mvTNQdhl9h-LqwvqkmRP-6" value="&lt;div style=&quot;color: rgb(212, 212, 212); background-color: rgb(30, 30, 30); font-family: Menlo, Monaco, &amp;quot;Courier New&amp;quot;, monospace; line-height: 18px; white-space-collapse: preserve;&quot;&gt;&lt;div&gt;&lt;span style=&quot;color: #569cd6;&quot;&gt;public&lt;/span&gt; &lt;span style=&quot;color: #4ec9b0;&quot;&gt;GuidanceSkvClientConf&lt;/span&gt; &lt;span style=&quot;color: #dcdcaa;&quot;&gt;getConf&lt;/span&gt;(&lt;/div&gt;&lt;div&gt;      &lt;span style=&quot;color: #4ec9b0;&quot;&gt;String&lt;/span&gt; &lt;span style=&quot;color: #9cdcfe;&quot;&gt;legacyProduct&lt;/span&gt;, &lt;span style=&quot;color: #4ec9b0;&quot;&gt;String&lt;/span&gt; &lt;span style=&quot;color: #9cdcfe;&quot;&gt;legacyBusiness&lt;/span&gt;, &lt;span style=&quot;color: #4ec9b0;&quot;&gt;String&lt;/span&gt; &lt;span style=&quot;color: #9cdcfe;&quot;&gt;legacyModule&lt;/span&gt;)&lt;/div&gt;&lt;/div&gt;" style="text;html=1;align=left;verticalAlign=middle;resizable=0;points=[];autosize=1;strokeColor=none;fillColor=none;" vertex="1" parent="1">
          <mxGeometry x="159" y="217" width="540" height="50" as="geometry" />
        </mxCell>
        <mxCell id="mvTNQdhl9h-LqwvqkmRP-7" value="&lt;div style=&quot;color: rgb(212, 212, 212); background-color: rgb(30, 30, 30); font-family: Menlo, Monaco, &amp;quot;Courier New&amp;quot;, monospace; line-height: 18px; white-space-collapse: preserve;&quot;&gt;&lt;div&gt;&lt;span style=&quot;color: #569cd6;&quot;&gt;public&lt;/span&gt; &amp;lt;&lt;span style=&quot;color: #4ec9b0;&quot;&gt;T&lt;/span&gt;&amp;gt; &lt;span style=&quot;color: #4ec9b0;&quot;&gt;T&lt;/span&gt; &lt;span style=&quot;color: #dcdcaa;&quot;&gt;getResource&lt;/span&gt;(&lt;/div&gt;&lt;div&gt;      &lt;span style=&quot;color: #4ec9b0;&quot;&gt;String&lt;/span&gt; &lt;span style=&quot;color: #9cdcfe;&quot;&gt;resourceOwner&lt;/span&gt;, &lt;span style=&quot;color: #4ec9b0;&quot;&gt;String&lt;/span&gt; &lt;span style=&quot;color: #9cdcfe;&quot;&gt;resourceType&lt;/span&gt;, &lt;span style=&quot;color: #4ec9b0;&quot;&gt;String&lt;/span&gt; &lt;span style=&quot;color: #9cdcfe;&quot;&gt;resourceName&lt;/span&gt;, &lt;span style=&quot;color: #4ec9b0;&quot;&gt;Class&lt;/span&gt;&amp;lt;&lt;span style=&quot;color: #4ec9b0;&quot;&gt;T&lt;/span&gt;&amp;gt; &lt;span style=&quot;color: #9cdcfe;&quot;&gt;configClass&lt;/span&gt;)&lt;/div&gt;&lt;/div&gt;" style="text;html=1;align=left;verticalAlign=middle;resizable=0;points=[];autosize=1;strokeColor=none;fillColor=none;" vertex="1" parent="1">
          <mxGeometry x="173" y="256" width="680" height="50" as="geometry" />
        </mxCell>
        <mxCell id="mvTNQdhl9h-LqwvqkmRP-8" value="&lt;div style=&quot;color: rgb(212, 212, 212); background-color: rgb(30, 30, 30); font-family: Menlo, Monaco, &amp;quot;Courier New&amp;quot;, monospace; line-height: 18px; white-space-collapse: preserve;&quot;&gt;&lt;div&gt;&lt;span style=&quot;color: #569cd6;&quot;&gt;public&lt;/span&gt; &lt;span style=&quot;color: #4ec9b0;&quot;&gt;GuidanceResourceResult&lt;/span&gt; &lt;span style=&quot;color: #dcdcaa;&quot;&gt;get&lt;/span&gt;(&lt;/div&gt;&lt;div&gt;      &lt;span style=&quot;color: #4ec9b0;&quot;&gt;String&lt;/span&gt; &lt;span style=&quot;color: #9cdcfe;&quot;&gt;product&lt;/span&gt;,&lt;/div&gt;&lt;div&gt;      &lt;span style=&quot;color: #4ec9b0;&quot;&gt;String&lt;/span&gt; &lt;span style=&quot;color: #9cdcfe;&quot;&gt;module&lt;/span&gt;,&lt;/div&gt;&lt;div&gt;      &lt;span style=&quot;color: #4ec9b0;&quot;&gt;String&lt;/span&gt; &lt;span style=&quot;color: #9cdcfe;&quot;&gt;resourceOwner&lt;/span&gt;,&lt;/div&gt;&lt;div&gt;      &lt;span style=&quot;color: #4ec9b0;&quot;&gt;String&lt;/span&gt; &lt;span style=&quot;color: #9cdcfe;&quot;&gt;resourceType&lt;/span&gt;,&lt;/div&gt;&lt;div&gt;      &lt;span style=&quot;color: #4ec9b0;&quot;&gt;String&lt;/span&gt; &lt;span style=&quot;color: #9cdcfe;&quot;&gt;resourceName&lt;/span&gt;)&lt;/div&gt;&lt;/div&gt;" style="text;html=1;align=left;verticalAlign=middle;resizable=0;points=[];autosize=1;strokeColor=none;fillColor=none;" vertex="1" parent="1">
          <mxGeometry x="188" y="296" width="270" height="120" as="geometry" />
        </mxCell>
        <mxCell id="mvTNQdhl9h-LqwvqkmRP-9" value="&lt;div style=&quot;color: rgb(212, 212, 212); background-color: rgb(30, 30, 30); font-family: Menlo, Monaco, &amp;quot;Courier New&amp;quot;, monospace; line-height: 18px; white-space-collapse: preserve;&quot;&gt;&lt;div&gt;&lt;span style=&quot;color: #569cd6;&quot;&gt;private&lt;/span&gt; &lt;span style=&quot;color: #4ec9b0;&quot;&gt;String&lt;/span&gt; &lt;span style=&quot;color: #dcdcaa;&quot;&gt;getResourcePath&lt;/span&gt;(&lt;/div&gt;&lt;div&gt;      &lt;span style=&quot;color: #4ec9b0;&quot;&gt;String&lt;/span&gt; &lt;span style=&quot;color: #9cdcfe;&quot;&gt;product&lt;/span&gt;,&lt;/div&gt;&lt;div&gt;      &lt;span style=&quot;color: #4ec9b0;&quot;&gt;String&lt;/span&gt; &lt;span style=&quot;color: #9cdcfe;&quot;&gt;module&lt;/span&gt;,&lt;/div&gt;&lt;div&gt;      &lt;span style=&quot;color: #4ec9b0;&quot;&gt;String&lt;/span&gt; &lt;span style=&quot;color: #9cdcfe;&quot;&gt;resourceOwner&lt;/span&gt;,&lt;/div&gt;&lt;div&gt;      &lt;span style=&quot;color: #4ec9b0;&quot;&gt;String&lt;/span&gt; &lt;span style=&quot;color: #9cdcfe;&quot;&gt;resourceType&lt;/span&gt;,&lt;/div&gt;&lt;div&gt;      &lt;span style=&quot;color: #4ec9b0;&quot;&gt;String&lt;/span&gt; &lt;span style=&quot;color: #9cdcfe;&quot;&gt;resourceName&lt;/span&gt;)&lt;/div&gt;&lt;div&gt;路径的格式如下所示，读取一些配置信息，包括skv的metaserver列表&lt;/div&gt;&lt;div&gt;&lt;div style=&quot;line-height: 18px;&quot;&gt;&lt;div&gt;&lt;span style=&quot;color: #ce9178;&quot;&gt;&quot;%s/%s/%s/platform_guidance/%s_%s_%s/access.yaml&quot;&lt;/span&gt;,&lt;/div&gt;&lt;div&gt;&lt;span style=&quot;color: #9cdcfe;&quot;&gt;programPath&lt;/span&gt;, &lt;span style=&quot;color: #9cdcfe;&quot;&gt;product&lt;/span&gt;, &lt;span style=&quot;color: #9cdcfe;&quot;&gt;module&lt;/span&gt;, &lt;span style=&quot;color: #9cdcfe;&quot;&gt;resourceOwner&lt;/span&gt;, &lt;span style=&quot;color: #9cdcfe;&quot;&gt;resourceType&lt;/span&gt;, &lt;span style=&quot;color: #9cdcfe;&quot;&gt;resourceName&lt;/span&gt;&lt;/div&gt;&lt;/div&gt;&lt;/div&gt;&lt;/div&gt;" style="text;html=1;align=left;verticalAlign=middle;resizable=0;points=[];autosize=1;strokeColor=none;fillColor=none;" vertex="1" parent="1">
          <mxGeometry x="208" y="405" width="540" height="180" as="geometry" />
        </mxCell>
        <mxCell id="mvTNQdhl9h-LqwvqkmRP-10" value="&lt;div style=&quot;color: rgb(212, 212, 212); background-color: rgb(30, 30, 30); font-family: Menlo, Monaco, &amp;quot;Courier New&amp;quot;, monospace; line-height: 18px; white-space-collapse: preserve;&quot;&gt;&lt;span style=&quot;color: #569cd6;&quot;&gt;public&lt;/span&gt; &lt;span style=&quot;color: #4ec9b0;&quot;&gt;KvTableClientInterface&lt;/span&gt; &lt;span style=&quot;color: #dcdcaa;&quot;&gt;build&lt;/span&gt;() &lt;span style=&quot;color: #569cd6;&quot;&gt;throws&lt;/span&gt; &lt;span style=&quot;color: #4ec9b0;&quot;&gt;Exception&lt;/span&gt;&lt;/div&gt;" style="text;html=1;align=center;verticalAlign=middle;resizable=0;points=[];autosize=1;strokeColor=none;fillColor=none;" vertex="1" parent="1">
          <mxGeometry x="220" y="574" width="410" height="30" as="geometry" />
        </mxCell>
        <mxCell id="mvTNQdhl9h-LqwvqkmRP-11" value="" style="strokeWidth=2;html=1;shape=mxgraph.flowchart.annotation_1;align=left;pointerEvents=1;" vertex="1" parent="1">
          <mxGeometry x="140" y="240" width="90" height="350" as="geometry" />
        </mxCell>
        <mxCell id="mvTNQdhl9h-LqwvqkmRP-13" value="&lt;font color=&quot;#ffcc99&quot; style=&quot;font-size: 18px;&quot;&gt;guidance skv通过读取对应的配置文件初始化客户端从而进行写入的流程&lt;/font&gt;" style="text;html=1;align=left;verticalAlign=middle;whiteSpace=wrap;rounded=0;" vertex="1" parent="1">
          <mxGeometry x="128" y="20" width="592" height="30" as="geometry" />
        </mxCell>
      </root>
    </mxGraphModel>
  </diagram>
</mxfile>
